<mxfile host="65bd71144e" pages="3">
    <diagram id="U5O1sheMpgnh9gDCX9Kw" name="lab1.3a">
        <mxGraphModel dx="1275" dy="1791" grid="1" gridSize="10" guides="1" tooltips="1" connect="1" arrows="1" fold="1" page="1" pageScale="1" pageWidth="827" pageHeight="1169" math="0" shadow="0">
            <root>
                <mxCell id="0"/>
                <mxCell id="1" parent="0"/>
                <mxCell id="Wd5XBtQZBHqo39rldjlK-1" value="Actor" style="shape=umlActor;verticalLabelPosition=bottom;verticalAlign=top;html=1;outlineConnect=0;" parent="1" vertex="1">
                    <mxGeometry x="897" y="204" width="30" height="60" as="geometry"/>
                </mxCell>
                <mxCell id="Wd5XBtQZBHqo39rldjlK-3" value="" style="rounded=0;whiteSpace=wrap;html=1;fillColor=#ffe6cc;strokeColor=#FF8000;" parent="1" vertex="1">
                    <mxGeometry x="330" y="10" width="450" height="660" as="geometry"/>
                </mxCell>
                <mxCell id="Wd5XBtQZBHqo39rldjlK-6" value="Database" style="rounded=0;whiteSpace=wrap;html=1;strokeColor=#FF8000;" parent="1" vertex="1">
                    <mxGeometry x="894" y="271" width="83" height="33" as="geometry"/>
                </mxCell>
                <mxCell id="Wd5XBtQZBHqo39rldjlK-19" style="edgeStyle=none;rounded=0;orthogonalLoop=1;jettySize=auto;html=1;entryX=0;entryY=0.3333333333333333;entryDx=0;entryDy=0;entryPerimeter=0;strokeColor=#0000CC;startArrow=none;startFill=0;exitX=1;exitY=0.5;exitDx=0;exitDy=0;" parent="1" source="-_fNTmg2Q0QrO5CFdmNo-6" target="Wd5XBtQZBHqo39rldjlK-1" edge="1">
                    <mxGeometry relative="1" as="geometry">
                        <mxPoint x="639.9734956090031" y="174.18609942004878" as="sourcePoint"/>
                    </mxGeometry>
                </mxCell>
                <mxCell id="Wd5XBtQZBHqo39rldjlK-18" style="edgeStyle=none;rounded=0;orthogonalLoop=1;jettySize=auto;html=1;entryX=0;entryY=0.5;entryDx=0;entryDy=0;strokeColor=#0000CC;" parent="1" source="Wd5XBtQZBHqo39rldjlK-9" target="-_fNTmg2Q0QrO5CFdmNo-1" edge="1">
                    <mxGeometry relative="1" as="geometry"/>
                </mxCell>
                <mxCell id="-_fNTmg2Q0QrO5CFdmNo-19" style="edgeStyle=none;rounded=0;orthogonalLoop=1;jettySize=auto;html=1;entryX=0;entryY=0.5;entryDx=0;entryDy=0;strokeColor=#0000CC;" parent="1" source="Wd5XBtQZBHqo39rldjlK-9" target="-_fNTmg2Q0QrO5CFdmNo-7" edge="1">
                    <mxGeometry relative="1" as="geometry"/>
                </mxCell>
                <mxCell id="Wd5XBtQZBHqo39rldjlK-9" value="Actor" style="shape=umlActor;verticalLabelPosition=bottom;verticalAlign=top;html=1;outlineConnect=0;" parent="1" vertex="1">
                    <mxGeometry x="155" y="35" width="30" height="60" as="geometry"/>
                </mxCell>
                <mxCell id="Wd5XBtQZBHqo39rldjlK-10" value="Khách hàng" style="rounded=0;whiteSpace=wrap;html=1;strokeColor=#FF8000;" parent="1" vertex="1">
                    <mxGeometry x="130" y="102" width="83" height="33" as="geometry"/>
                </mxCell>
                <mxCell id="Wd5XBtQZBHqo39rldjlK-17" style="rounded=0;orthogonalLoop=1;jettySize=auto;html=1;entryX=0.25;entryY=0.1;entryDx=0;entryDy=0;entryPerimeter=0;exitX=1;exitY=0.5;exitDx=0;exitDy=0;strokeColor=#0000CC;" parent="1" source="Wd5XBtQZBHqo39rldjlK-11" target="Wd5XBtQZBHqo39rldjlK-1" edge="1">
                    <mxGeometry relative="1" as="geometry"/>
                </mxCell>
                <mxCell id="Wd5XBtQZBHqo39rldjlK-11" value="Phân loại đĩa và đưa lên kệ" style="ellipse;whiteSpace=wrap;html=1;strokeColor=#FF8000;" parent="1" vertex="1">
                    <mxGeometry x="370" y="52" width="160" height="58" as="geometry"/>
                </mxCell>
                <mxCell id="Wd5XBtQZBHqo39rldjlK-21" style="edgeStyle=none;rounded=0;orthogonalLoop=1;jettySize=auto;html=1;entryX=0.5;entryY=0.5;entryDx=0;entryDy=0;entryPerimeter=0;startArrow=classic;startFill=1;strokeColor=#0000CC;endArrow=none;endFill=0;" parent="1" source="Wd5XBtQZBHqo39rldjlK-13" target="Wd5XBtQZBHqo39rldjlK-1" edge="1">
                    <mxGeometry relative="1" as="geometry"/>
                </mxCell>
                <mxCell id="Wd5XBtQZBHqo39rldjlK-13" value="In danh sách" style="ellipse;whiteSpace=wrap;html=1;strokeColor=#FF8000;" parent="1" vertex="1">
                    <mxGeometry x="390" y="412" width="100" height="50" as="geometry"/>
                </mxCell>
                <mxCell id="Wd5XBtQZBHqo39rldjlK-20" style="edgeStyle=none;rounded=0;orthogonalLoop=1;jettySize=auto;html=1;startArrow=none;startFill=0;strokeColor=#0000CC;" parent="1" source="Wd5XBtQZBHqo39rldjlK-14" target="Wd5XBtQZBHqo39rldjlK-13" edge="1">
                    <mxGeometry relative="1" as="geometry"/>
                </mxCell>
                <mxCell id="Wd5XBtQZBHqo39rldjlK-26" style="edgeStyle=none;rounded=0;sketch=0;orthogonalLoop=1;jettySize=auto;html=1;exitX=1;exitY=1;exitDx=0;exitDy=0;exitPerimeter=0;entryX=0;entryY=0;entryDx=0;entryDy=0;shadow=0;startArrow=none;startFill=0;endArrow=classic;endFill=1;strokeColor=#0000CC;" parent="1" source="Wd5XBtQZBHqo39rldjlK-14" target="-_fNTmg2Q0QrO5CFdmNo-9" edge="1">
                    <mxGeometry relative="1" as="geometry">
                        <mxPoint x="379" y="494" as="targetPoint"/>
                    </mxGeometry>
                </mxCell>
                <mxCell id="-_fNTmg2Q0QrO5CFdmNo-23" style="edgeStyle=none;rounded=0;orthogonalLoop=1;jettySize=auto;html=1;entryX=0;entryY=0.5;entryDx=0;entryDy=0;startArrow=none;startFill=0;endArrow=classic;endFill=0;strokeColor=#0000CC;" parent="1" source="Wd5XBtQZBHqo39rldjlK-14" target="Wd5XBtQZBHqo39rldjlK-11" edge="1">
                    <mxGeometry relative="1" as="geometry"/>
                </mxCell>
                <mxCell id="Wd5XBtQZBHqo39rldjlK-14" value="Actor" style="shape=umlActor;verticalLabelPosition=bottom;verticalAlign=top;html=1;outlineConnect=0;" parent="1" vertex="1">
                    <mxGeometry x="156" y="210" width="30" height="60" as="geometry"/>
                </mxCell>
                <mxCell id="Wd5XBtQZBHqo39rldjlK-15" value="Người quản lý" style="rounded=0;whiteSpace=wrap;html=1;strokeColor=#FF8000;" parent="1" vertex="1">
                    <mxGeometry x="131" y="277" width="83" height="33" as="geometry"/>
                </mxCell>
                <mxCell id="-_fNTmg2Q0QrO5CFdmNo-1" value="Mượn đĩa" style="ellipse;whiteSpace=wrap;html=1;strokeColor=#FF8000;" parent="1" vertex="1">
                    <mxGeometry x="390" y="120" width="100" height="50" as="geometry"/>
                </mxCell>
                <mxCell id="-_fNTmg2Q0QrO5CFdmNo-8" style="rounded=0;orthogonalLoop=1;jettySize=auto;html=1;strokeColor=#0000CC;startArrow=none;startFill=0;" parent="1" source="-_fNTmg2Q0QrO5CFdmNo-2" target="-_fNTmg2Q0QrO5CFdmNo-7" edge="1">
                    <mxGeometry relative="1" as="geometry"/>
                </mxCell>
                <mxCell id="-_fNTmg2Q0QrO5CFdmNo-2" value="Trả đĩa" style="ellipse;whiteSpace=wrap;html=1;strokeColor=#FF8000;" parent="1" vertex="1">
                    <mxGeometry x="550" y="304" width="100" height="50" as="geometry"/>
                </mxCell>
                <mxCell id="-_fNTmg2Q0QrO5CFdmNo-3" value="&amp;lt;&amp;lt;include&amp;gt;&amp;gt;" style="html=1;verticalAlign=bottom;labelBackgroundColor=none;endArrow=open;endFill=0;dashed=1;rounded=0;exitX=1;exitY=1;exitDx=0;exitDy=0;entryX=0;entryY=0;entryDx=0;entryDy=0;" parent="1" source="-_fNTmg2Q0QrO5CFdmNo-1" target="-_fNTmg2Q0QrO5CFdmNo-6" edge="1">
                    <mxGeometry width="160" relative="1" as="geometry">
                        <mxPoint x="480" y="180" as="sourcePoint"/>
                        <mxPoint x="554.6446609406726" y="157.32233047033628" as="targetPoint"/>
                    </mxGeometry>
                </mxCell>
                <mxCell id="-_fNTmg2Q0QrO5CFdmNo-5" value="Extends" style="endArrow=block;endSize=16;endFill=0;html=1;rounded=0;exitX=0.5;exitY=0;exitDx=0;exitDy=0;entryX=0.5;entryY=1;entryDx=0;entryDy=0;" parent="1" source="-_fNTmg2Q0QrO5CFdmNo-2" target="-_fNTmg2Q0QrO5CFdmNo-6" edge="1">
                    <mxGeometry width="160" relative="1" as="geometry">
                        <mxPoint x="480" y="180" as="sourcePoint"/>
                        <mxPoint x="590" y="200" as="targetPoint"/>
                    </mxGeometry>
                </mxCell>
                <mxCell id="-_fNTmg2Q0QrO5CFdmNo-6" value="Kiểm tra&amp;nbsp;&lt;br&gt;&lt;br&gt;Khách hàng mượn đĩa quá hạn mà chưa trả" style="shape=lineEllipse;perimeter=ellipsePerimeter;whiteSpace=wrap;html=1;backgroundOutline=1;strokeColor=#FF8000;" parent="1" vertex="1">
                    <mxGeometry x="510" y="200" width="180" height="63" as="geometry"/>
                </mxCell>
                <mxCell id="-_fNTmg2Q0QrO5CFdmNo-20" style="edgeStyle=none;rounded=0;orthogonalLoop=1;jettySize=auto;html=1;entryX=0;entryY=1;entryDx=0;entryDy=0;entryPerimeter=0;strokeColor=#0000CC;" parent="1" source="-_fNTmg2Q0QrO5CFdmNo-7" target="Wd5XBtQZBHqo39rldjlK-1" edge="1">
                    <mxGeometry relative="1" as="geometry"/>
                </mxCell>
                <mxCell id="-_fNTmg2Q0QrO5CFdmNo-7" value="Nộp phạt" style="ellipse;whiteSpace=wrap;html=1;strokeColor=#FF8000;" parent="1" vertex="1">
                    <mxGeometry x="550" y="400" width="100" height="50" as="geometry"/>
                </mxCell>
                <mxCell id="-_fNTmg2Q0QrO5CFdmNo-9" value="Kiểm tra chất lượng đĩa&lt;br&gt;&lt;br&gt;Đĩa hỏng" style="shape=lineEllipse;perimeter=ellipsePerimeter;whiteSpace=wrap;html=1;backgroundOutline=1;strokeColor=#FF8000;" parent="1" vertex="1">
                    <mxGeometry x="350" y="480" width="180" height="73" as="geometry"/>
                </mxCell>
                <mxCell id="-_fNTmg2Q0QrO5CFdmNo-12" value="Extends" style="endArrow=block;endSize=16;endFill=0;html=1;rounded=0;exitX=0;exitY=0;exitDx=0;exitDy=0;entryX=1;entryY=1;entryDx=0;entryDy=0;" parent="1" source="-_fNTmg2Q0QrO5CFdmNo-16" target="-_fNTmg2Q0QrO5CFdmNo-9" edge="1">
                    <mxGeometry width="160" relative="1" as="geometry">
                        <mxPoint x="610" y="287" as="sourcePoint"/>
                        <mxPoint x="644" y="237" as="targetPoint"/>
                    </mxGeometry>
                </mxCell>
                <mxCell id="-_fNTmg2Q0QrO5CFdmNo-21" style="edgeStyle=none;rounded=0;orthogonalLoop=1;jettySize=auto;html=1;entryX=0;entryY=0;entryDx=0;entryDy=0;strokeColor=#0000CC;exitX=1;exitY=0.5;exitDx=0;exitDy=0;" parent="1" source="-_fNTmg2Q0QrO5CFdmNo-16" target="Wd5XBtQZBHqo39rldjlK-6" edge="1">
                    <mxGeometry relative="1" as="geometry"/>
                </mxCell>
                <mxCell id="-_fNTmg2Q0QrO5CFdmNo-16" value="Bỏ đĩa ra khỏi kệ&lt;br&gt;&lt;br&gt;Hỏng do khách hàng" style="shape=lineEllipse;perimeter=ellipsePerimeter;whiteSpace=wrap;html=1;backgroundOutline=1;strokeColor=#FF8000;" parent="1" vertex="1">
                    <mxGeometry x="510" y="560" width="180" height="73" as="geometry"/>
                </mxCell>
                <mxCell id="-_fNTmg2Q0QrO5CFdmNo-18" value="Extends" style="endArrow=block;endSize=16;endFill=0;html=1;rounded=0;entryX=0.5;entryY=0;entryDx=0;entryDy=0;" parent="1" source="-_fNTmg2Q0QrO5CFdmNo-7" target="-_fNTmg2Q0QrO5CFdmNo-16" edge="1">
                    <mxGeometry width="160" relative="1" as="geometry">
                        <mxPoint x="596.5436559723462" y="605.116491251878" as="sourcePoint"/>
                        <mxPoint x="553.4563440276424" y="552.3835087481175" as="targetPoint"/>
                    </mxGeometry>
                </mxCell>
                <mxCell id="LeXju_57c9P_A_IAp_PP-2" value="Hệ thống quản lý cửa hàng video" style="rounded=0;whiteSpace=wrap;html=1;fontSize=12;fillColor=#ffe6cc;strokeColor=#FF8000;" parent="1" vertex="1">
                    <mxGeometry x="340" y="10" width="230" height="30" as="geometry"/>
                </mxCell>
                <mxCell id="otvuLH-A91t0Up7DX6q2-1" value="Actor" style="shape=umlActor;verticalLabelPosition=bottom;verticalAlign=top;html=1;outlineConnect=0;" vertex="1" parent="1">
                    <mxGeometry x="897" y="204" width="30" height="60" as="geometry"/>
                </mxCell>
                <mxCell id="otvuLH-A91t0Up7DX6q2-2" value="" style="rounded=0;whiteSpace=wrap;html=1;fillColor=#1ba1e2;strokeColor=#006EAF;fontColor=#ffffff;" vertex="1" parent="1">
                    <mxGeometry x="330" y="10" width="450" height="660" as="geometry"/>
                </mxCell>
                <mxCell id="otvuLH-A91t0Up7DX6q2-3" value="Database" style="rounded=0;whiteSpace=wrap;html=1;strokeColor=#FF8000;" vertex="1" parent="1">
                    <mxGeometry x="894" y="271" width="83" height="33" as="geometry"/>
                </mxCell>
                <mxCell id="otvuLH-A91t0Up7DX6q2-4" style="edgeStyle=none;rounded=0;orthogonalLoop=1;jettySize=auto;html=1;entryX=0;entryY=0.3333333333333333;entryDx=0;entryDy=0;entryPerimeter=0;strokeColor=#0000CC;startArrow=none;startFill=0;exitX=1;exitY=0.5;exitDx=0;exitDy=0;" edge="1" parent="1" source="otvuLH-A91t0Up7DX6q2-23" target="otvuLH-A91t0Up7DX6q2-1">
                    <mxGeometry relative="1" as="geometry">
                        <mxPoint x="639.9734956090031" y="174.18609942004878" as="sourcePoint"/>
                    </mxGeometry>
                </mxCell>
                <mxCell id="otvuLH-A91t0Up7DX6q2-5" style="edgeStyle=none;rounded=0;orthogonalLoop=1;jettySize=auto;html=1;entryX=0;entryY=0.5;entryDx=0;entryDy=0;strokeColor=#0000CC;" edge="1" parent="1" source="otvuLH-A91t0Up7DX6q2-7" target="otvuLH-A91t0Up7DX6q2-18">
                    <mxGeometry relative="1" as="geometry"/>
                </mxCell>
                <mxCell id="otvuLH-A91t0Up7DX6q2-6" style="edgeStyle=none;rounded=0;orthogonalLoop=1;jettySize=auto;html=1;entryX=0;entryY=0.5;entryDx=0;entryDy=0;strokeColor=#0000CC;" edge="1" parent="1" source="otvuLH-A91t0Up7DX6q2-7" target="otvuLH-A91t0Up7DX6q2-25">
                    <mxGeometry relative="1" as="geometry"/>
                </mxCell>
                <mxCell id="otvuLH-A91t0Up7DX6q2-7" value="Actor" style="shape=umlActor;verticalLabelPosition=bottom;verticalAlign=top;html=1;outlineConnect=0;" vertex="1" parent="1">
                    <mxGeometry x="155" y="35" width="30" height="60" as="geometry"/>
                </mxCell>
                <mxCell id="otvuLH-A91t0Up7DX6q2-8" value="Khách hàng" style="rounded=0;whiteSpace=wrap;html=1;strokeColor=#FF8000;" vertex="1" parent="1">
                    <mxGeometry x="130" y="102" width="83" height="33" as="geometry"/>
                </mxCell>
                <mxCell id="otvuLH-A91t0Up7DX6q2-9" style="rounded=0;orthogonalLoop=1;jettySize=auto;html=1;entryX=0.25;entryY=0.1;entryDx=0;entryDy=0;entryPerimeter=0;exitX=1;exitY=0.5;exitDx=0;exitDy=0;strokeColor=#0000CC;" edge="1" parent="1" source="otvuLH-A91t0Up7DX6q2-10" target="otvuLH-A91t0Up7DX6q2-1">
                    <mxGeometry relative="1" as="geometry"/>
                </mxCell>
                <mxCell id="otvuLH-A91t0Up7DX6q2-10" value="Phân loại đĩa để đưa lên kệ" style="ellipse;whiteSpace=wrap;html=1;strokeColor=#FF8000;" vertex="1" parent="1">
                    <mxGeometry x="370" y="52" width="160" height="58" as="geometry"/>
                </mxCell>
                <mxCell id="otvuLH-A91t0Up7DX6q2-11" style="edgeStyle=none;rounded=0;orthogonalLoop=1;jettySize=auto;html=1;entryX=0.5;entryY=0.5;entryDx=0;entryDy=0;entryPerimeter=0;startArrow=classic;startFill=1;strokeColor=#0000CC;endArrow=none;endFill=0;" edge="1" parent="1" source="otvuLH-A91t0Up7DX6q2-12" target="otvuLH-A91t0Up7DX6q2-1">
                    <mxGeometry relative="1" as="geometry"/>
                </mxCell>
                <mxCell id="otvuLH-A91t0Up7DX6q2-12" value="In danh sách" style="ellipse;whiteSpace=wrap;html=1;strokeColor=#FF8000;" vertex="1" parent="1">
                    <mxGeometry x="390" y="412" width="100" height="50" as="geometry"/>
                </mxCell>
                <mxCell id="otvuLH-A91t0Up7DX6q2-13" style="edgeStyle=none;rounded=0;orthogonalLoop=1;jettySize=auto;html=1;startArrow=none;startFill=0;strokeColor=#0000CC;" edge="1" parent="1" source="otvuLH-A91t0Up7DX6q2-16" target="otvuLH-A91t0Up7DX6q2-12">
                    <mxGeometry relative="1" as="geometry"/>
                </mxCell>
                <mxCell id="otvuLH-A91t0Up7DX6q2-14" style="edgeStyle=none;rounded=0;sketch=0;orthogonalLoop=1;jettySize=auto;html=1;exitX=1;exitY=1;exitDx=0;exitDy=0;exitPerimeter=0;entryX=0;entryY=0;entryDx=0;entryDy=0;shadow=0;startArrow=none;startFill=0;endArrow=classic;endFill=1;strokeColor=#0000CC;" edge="1" parent="1" source="otvuLH-A91t0Up7DX6q2-16" target="otvuLH-A91t0Up7DX6q2-26">
                    <mxGeometry relative="1" as="geometry">
                        <mxPoint x="379" y="494" as="targetPoint"/>
                    </mxGeometry>
                </mxCell>
                <mxCell id="otvuLH-A91t0Up7DX6q2-15" style="edgeStyle=none;rounded=0;orthogonalLoop=1;jettySize=auto;html=1;entryX=0;entryY=0.5;entryDx=0;entryDy=0;startArrow=none;startFill=0;endArrow=classic;endFill=0;strokeColor=#0000CC;" edge="1" parent="1" source="otvuLH-A91t0Up7DX6q2-16" target="otvuLH-A91t0Up7DX6q2-10">
                    <mxGeometry relative="1" as="geometry"/>
                </mxCell>
                <mxCell id="otvuLH-A91t0Up7DX6q2-16" value="Actor" style="shape=umlActor;verticalLabelPosition=bottom;verticalAlign=top;html=1;outlineConnect=0;" vertex="1" parent="1">
                    <mxGeometry x="156" y="210" width="30" height="60" as="geometry"/>
                </mxCell>
                <mxCell id="otvuLH-A91t0Up7DX6q2-17" value="Người quản lý" style="rounded=0;whiteSpace=wrap;html=1;strokeColor=#FF8000;" vertex="1" parent="1">
                    <mxGeometry x="131" y="277" width="83" height="33" as="geometry"/>
                </mxCell>
                <mxCell id="otvuLH-A91t0Up7DX6q2-18" value="Mượn đĩa" style="ellipse;whiteSpace=wrap;html=1;strokeColor=#FF8000;" vertex="1" parent="1">
                    <mxGeometry x="390" y="120" width="100" height="50" as="geometry"/>
                </mxCell>
                <mxCell id="otvuLH-A91t0Up7DX6q2-19" style="rounded=0;orthogonalLoop=1;jettySize=auto;html=1;strokeColor=#0000CC;startArrow=none;startFill=0;" edge="1" parent="1" source="otvuLH-A91t0Up7DX6q2-20" target="otvuLH-A91t0Up7DX6q2-25">
                    <mxGeometry relative="1" as="geometry"/>
                </mxCell>
                <mxCell id="otvuLH-A91t0Up7DX6q2-20" value="Trả đĩa" style="ellipse;whiteSpace=wrap;html=1;strokeColor=#FF8000;" vertex="1" parent="1">
                    <mxGeometry x="550" y="304" width="100" height="50" as="geometry"/>
                </mxCell>
                <mxCell id="otvuLH-A91t0Up7DX6q2-21" value="&amp;lt;&amp;lt;include&amp;gt;&amp;gt;" style="html=1;verticalAlign=bottom;labelBackgroundColor=none;endArrow=open;endFill=0;dashed=1;rounded=0;exitX=1;exitY=1;exitDx=0;exitDy=0;entryX=0;entryY=0;entryDx=0;entryDy=0;" edge="1" parent="1" source="otvuLH-A91t0Up7DX6q2-18" target="otvuLH-A91t0Up7DX6q2-23">
                    <mxGeometry width="160" relative="1" as="geometry">
                        <mxPoint x="480" y="180" as="sourcePoint"/>
                        <mxPoint x="554.6446609406726" y="157.32233047033628" as="targetPoint"/>
                    </mxGeometry>
                </mxCell>
                <mxCell id="otvuLH-A91t0Up7DX6q2-22" value="Extends" style="endArrow=block;endSize=16;endFill=0;html=1;rounded=0;exitX=0.5;exitY=0;exitDx=0;exitDy=0;entryX=0.5;entryY=1;entryDx=0;entryDy=0;" edge="1" parent="1" source="otvuLH-A91t0Up7DX6q2-20" target="otvuLH-A91t0Up7DX6q2-23">
                    <mxGeometry width="160" relative="1" as="geometry">
                        <mxPoint x="480" y="180" as="sourcePoint"/>
                        <mxPoint x="590" y="200" as="targetPoint"/>
                    </mxGeometry>
                </mxCell>
                <mxCell id="otvuLH-A91t0Up7DX6q2-23" value="Kiểm tra&amp;nbsp;&lt;br&gt;&lt;br&gt;Khách hàng mượn đĩa quá hạn mà chưa trả" style="shape=lineEllipse;perimeter=ellipsePerimeter;whiteSpace=wrap;html=1;backgroundOutline=1;strokeColor=#FF8000;" vertex="1" parent="1">
                    <mxGeometry x="510" y="200" width="180" height="63" as="geometry"/>
                </mxCell>
                <mxCell id="otvuLH-A91t0Up7DX6q2-24" style="edgeStyle=none;rounded=0;orthogonalLoop=1;jettySize=auto;html=1;entryX=0;entryY=1;entryDx=0;entryDy=0;entryPerimeter=0;strokeColor=#0000CC;" edge="1" parent="1" source="otvuLH-A91t0Up7DX6q2-25" target="otvuLH-A91t0Up7DX6q2-1">
                    <mxGeometry relative="1" as="geometry"/>
                </mxCell>
                <mxCell id="otvuLH-A91t0Up7DX6q2-25" value="Nộp phạt" style="ellipse;whiteSpace=wrap;html=1;strokeColor=#FF8000;" vertex="1" parent="1">
                    <mxGeometry x="550" y="400" width="100" height="50" as="geometry"/>
                </mxCell>
                <mxCell id="otvuLH-A91t0Up7DX6q2-26" value="Kiểm tra chất lượng đĩa&lt;br&gt;&lt;br&gt;Đĩa hỏng" style="shape=lineEllipse;perimeter=ellipsePerimeter;whiteSpace=wrap;html=1;backgroundOutline=1;strokeColor=#FF8000;" vertex="1" parent="1">
                    <mxGeometry x="350" y="480" width="180" height="73" as="geometry"/>
                </mxCell>
                <mxCell id="otvuLH-A91t0Up7DX6q2-27" value="Extends" style="endArrow=block;endSize=16;endFill=0;html=1;rounded=0;exitX=0;exitY=0;exitDx=0;exitDy=0;entryX=1;entryY=1;entryDx=0;entryDy=0;" edge="1" parent="1" source="otvuLH-A91t0Up7DX6q2-29" target="otvuLH-A91t0Up7DX6q2-26">
                    <mxGeometry width="160" relative="1" as="geometry">
                        <mxPoint x="610" y="287" as="sourcePoint"/>
                        <mxPoint x="644" y="237" as="targetPoint"/>
                    </mxGeometry>
                </mxCell>
                <mxCell id="otvuLH-A91t0Up7DX6q2-28" style="edgeStyle=none;rounded=0;orthogonalLoop=1;jettySize=auto;html=1;entryX=0;entryY=0;entryDx=0;entryDy=0;strokeColor=#0000CC;exitX=1;exitY=0.5;exitDx=0;exitDy=0;" edge="1" parent="1" source="otvuLH-A91t0Up7DX6q2-29" target="otvuLH-A91t0Up7DX6q2-3">
                    <mxGeometry relative="1" as="geometry"/>
                </mxCell>
                <mxCell id="otvuLH-A91t0Up7DX6q2-29" value="Bỏ đĩa ra khỏi kệ&lt;br&gt;&lt;br&gt;Hỏng do khách hàng" style="shape=lineEllipse;perimeter=ellipsePerimeter;whiteSpace=wrap;html=1;backgroundOutline=1;strokeColor=#FF8000;" vertex="1" parent="1">
                    <mxGeometry x="510" y="553" width="180" height="73" as="geometry"/>
                </mxCell>
                <mxCell id="otvuLH-A91t0Up7DX6q2-30" value="Extends" style="endArrow=block;endSize=16;endFill=0;html=1;rounded=0;entryX=0.5;entryY=0;entryDx=0;entryDy=0;" edge="1" parent="1" source="otvuLH-A91t0Up7DX6q2-25" target="otvuLH-A91t0Up7DX6q2-29">
                    <mxGeometry width="160" relative="1" as="geometry">
                        <mxPoint x="596.5436559723462" y="605.116491251878" as="sourcePoint"/>
                        <mxPoint x="553.4563440276424" y="552.3835087481175" as="targetPoint"/>
                    </mxGeometry>
                </mxCell>
                <mxCell id="otvuLH-A91t0Up7DX6q2-31" value="Hệ thống quản lý cửa hàng video" style="rounded=0;whiteSpace=wrap;html=1;fontSize=12;fillColor=#1ba1e2;strokeColor=#006EAF;fontColor=#ffffff;" vertex="1" parent="1">
                    <mxGeometry x="340" y="10" width="230" height="30" as="geometry"/>
                </mxCell>
                <mxCell id="otvuLH-A91t0Up7DX6q2-32" value="Khách hàng" style="html=1;verticalAlign=top;" vertex="1" parent="1">
                    <mxGeometry x="264" y="820" width="120" height="80" as="geometry"/>
                </mxCell>
                <mxCell id="otvuLH-A91t0Up7DX6q2-33" value="Quản lý" style="html=1;verticalAlign=top;" vertex="1" parent="1">
                    <mxGeometry x="504" y="720" width="120" height="80" as="geometry"/>
                </mxCell>
                <mxCell id="otvuLH-A91t0Up7DX6q2-34" value="&lt;span&gt;Hệ thống&lt;/span&gt;" style="html=1;verticalAlign=top;" vertex="1" parent="1">
                    <mxGeometry x="504" y="920" width="120" height="80" as="geometry"/>
                </mxCell>
                <mxCell id="otvuLH-A91t0Up7DX6q2-35" value="association" style="endArrow=open;startArrow=none;endFill=0;startFill=0;endSize=8;html=1;verticalAlign=bottom;labelBackgroundColor=none;strokeWidth=1;entryX=0;entryY=0.5;entryDx=0;entryDy=0;exitX=1;exitY=0.25;exitDx=0;exitDy=0;" edge="1" parent="1" source="otvuLH-A91t0Up7DX6q2-32" target="otvuLH-A91t0Up7DX6q2-33">
                    <mxGeometry width="160" relative="1" as="geometry">
                        <mxPoint x="384" y="810.7777777777778" as="sourcePoint"/>
                        <mxPoint x="494" y="790" as="targetPoint"/>
                    </mxGeometry>
                </mxCell>
                <mxCell id="otvuLH-A91t0Up7DX6q2-36" value="association" style="endArrow=open;startArrow=none;endFill=0;startFill=0;endSize=8;html=1;verticalAlign=bottom;labelBackgroundColor=none;strokeWidth=1;entryX=0;entryY=0.5;entryDx=0;entryDy=0;exitX=1;exitY=0.75;exitDx=0;exitDy=0;" edge="1" parent="1" source="otvuLH-A91t0Up7DX6q2-32" target="otvuLH-A91t0Up7DX6q2-34">
                    <mxGeometry width="160" relative="1" as="geometry">
                        <mxPoint x="384" y="810.7777777777778" as="sourcePoint"/>
                        <mxPoint x="494" y="790" as="targetPoint"/>
                    </mxGeometry>
                </mxCell>
                <mxCell id="otvuLH-A91t0Up7DX6q2-37" value="" style="html=1;endArrow=diamondThin;endFill=0;edgeStyle=elbowEdgeStyle;elbow=vertical;endSize=10;exitX=0.5;exitY=1;exitDx=0;exitDy=0;entryX=0.5;entryY=0;entryDx=0;entryDy=0;" edge="1" parent="1" source="otvuLH-A91t0Up7DX6q2-33" target="otvuLH-A91t0Up7DX6q2-34">
                    <mxGeometry width="160" relative="1" as="geometry">
                        <mxPoint x="564" y="910" as="sourcePoint"/>
                        <mxPoint x="634" y="890" as="targetPoint"/>
                    </mxGeometry>
                </mxCell>
                <mxCell id="otvuLH-A91t0Up7DX6q2-38" value="aggregation" style="edgeLabel;html=1;align=center;verticalAlign=middle;resizable=0;points=[];" vertex="1" connectable="0" parent="otvuLH-A91t0Up7DX6q2-37">
                    <mxGeometry x="0.0693" y="-1" relative="1" as="geometry">
                        <mxPoint as="offset"/>
                    </mxGeometry>
                </mxCell>
                <mxCell id="otvuLH-A91t0Up7DX6q2-39" value="Sơ đồ class" style="html=1;" vertex="1" parent="1">
                    <mxGeometry x="230" y="710" width="110" height="30" as="geometry"/>
                </mxCell>
                <mxCell id="otvuLH-A91t0Up7DX6q2-40" value="Sơ đồ UC" style="html=1;" vertex="1" parent="1">
                    <mxGeometry x="213" y="-50" width="110" height="30" as="geometry"/>
                </mxCell>
            </root>
        </mxGraphModel>
    </diagram>
</mxfile>